<svg width="100" height="100" viewBox="0 0 100 100" fill="none" xmlns="http://www.w3.org/2000/svg">
<circle cx="50" cy="50" r="50" fill="black"/>
<path d="M34.8333 43.5C31.5833 46.75 28.3333 50.4333 28.3333 55.4166C28.3333 56.9816 28.6416 58.5312 29.2404 59.977C29.8393 61.4228 30.7171 62.7364 31.8236 63.843C34.0585 66.0778 37.0895 67.3333 40.25 67.3333C44.15 67.3333 46.75 66.25 50 63C53.25 66.25 55.85 67.3333 59.75 67.3333C61.3149 67.3333 62.8645 67.0251 64.3103 66.4262C65.7561 65.8273 67.0698 64.9496 68.1764 63.843C69.2829 62.7364 70.1607 61.4228 70.7596 59.977C71.3584 58.5312 71.6667 56.9816 71.6667 55.4166C71.6667 50.4333 68.4167 46.75 65.1667 43.5L50 28.3333L34.8333 43.5Z" fill="white" stroke="white" stroke-width="2" stroke-linecap="round" stroke-linejoin="round"/>
<path d="M50 63V71.6667" stroke="white" stroke-width="2" stroke-linecap="round" stroke-linejoin="round"/>
</svg>
